<svg xmlns:x="http://ns.adobe.com/Extensibility/1.0/" xmlns:i="http://ns.adobe.com/AdobeIllustrator/10.0/" xmlns:graph="http://ns.adobe.com/Graphs/1.0/" xmlns="http://www.w3.org/2000/svg" xmlns:xlink="http://www.w3.org/1999/xlink" version="1.1" x="0px" y="0px" viewBox="0 0 100 125" enable-background="new 0 0 100 100" xml:space="preserve"><metadata><sfw xmlns="http://ns.adobe.com/SaveForWeb/1.0/"><slices/><sliceSourceBounds width="1449.1" height="1429.6" y="-1445.1" x="0.4" bottomLeftOrigin="true"/></sfw></metadata><path d="M18.1,79h23c1.4,0,2.5,1.1,2.5,2.5V82l12.7,0l0-0.4c0-1.4,1.1-2.5,2.5-2.5h23.1c1.4,0,2.5,1.1,2.5,2.5S83.2,84,81.9,84h-21  c-0.8,1.7-2.5,2.9-4.6,2.9H43.7c-2,0-3.8-1.2-4.6-2.9h-21c-1.4,0-2.5-1.1-2.5-2.5S16.8,79,18.1,79z M99.6,86.2v-4.7  c0-1.4-1.1-2.5-2.5-2.5h-4.7V33.9c0-1.4-1.1-2.5-2.5-2.5s-2.5,1.1-2.5,2.5v47.6c0,1.4,1.1,2.5,2.5,2.5h4.7v2.2  c0,2.5-2.1,4.6-4.6,4.6H10c-2.5,0-4.6-2.1-4.6-4.6V84h4.7c1.4,0,2.5-1.1,2.5-2.5V33.9c0-1.4-1.1-2.5-2.5-2.5s-2.5,1.1-2.5,2.5V79  H2.9c-1.4,0-2.5,1.1-2.5,2.5v4.7c0,5.3,4.3,9.6,9.6,9.6h80C95.3,95.8,99.6,91.5,99.6,86.2z M18.2,44.2V12c0-4.3,3.5-7.8,7.8-7.8  h48.9c4.3,0,7.8,3.5,7.8,7.8v38c0,4.3-3.5,7.8-7.8,7.8H42.6l-9,10.4C32.9,69,32,69.4,31,69.4c-1.9,0-3.5-1.5-3.5-3.4v-8.2H26  c-4.3,0-7.8-3.5-7.8-7.8V47 M23.2,12v27.2l8.8-8.8c0.5-0.5,1.1-0.7,1.8-0.7s1.3,0.3,1.8,0.7l9.5,9.5l17.6-17.6c1-1,2.6-1,3.5,0  l11.5,11.5V12c0-1.5-1.3-2.8-2.8-2.8H26C24.4,9.2,23.2,10.5,23.2,12z M30,52.8c1.4,0,2.5,1.1,2.5,2.5v6.5l7-8.1  c0.5-0.5,1.2-0.9,1.9-0.9h33.4c1.5,0,2.8-1.3,2.8-2.8v-9.2L64.4,27.5L46.7,45.2c-0.9,0.9-2.6,0.9-3.5,0l-9.5-9.5L23.2,46.2V50  c0,1.5,1.3,2.8,2.8,2.8H30z M37.4,20.2c0-4.2,3.4-7.5,7.5-7.5c4.2,0,7.5,3.4,7.5,7.5s-3.4,7.5-7.5,7.5  C40.8,27.7,37.4,24.3,37.4,20.2z M42.4,20.2c0,1.4,1.1,2.5,2.5,2.5c1.4,0,2.5-1.1,2.5-2.5s-1.1-2.5-2.5-2.5  C43.6,17.6,42.4,18.8,42.4,20.2z"/><text x="0" y="115" fill="#000000" font-size="5px" font-weight="bold" font-family="'Helvetica Neue', Helvetica, Arial-Unicode, Arial, Sans-serif">Created by Gregor Črešnar</text><text x="0" y="120" fill="#000000" font-size="5px" font-weight="bold" font-family="'Helvetica Neue', Helvetica, Arial-Unicode, Arial, Sans-serif">from the Noun Project</text></svg>